<?xml version="1.0" standalone="yes"?>
<svg version="1.1" xmlns="http://www.w3.org/2000/svg" xmlns:xlink="http://www.w3.org/1999/xlink" xmlns:ev="http://www.w3.org/2001/xml-events" width="43.5" height="43.5" shape-rendering="crispEdges">
<rect width="1.5" height="1.5" x="0.0" y="0.0" style="fill:#ffffff"/><rect width="1.5" height="1.5" x="1.5" y="0.0" style="fill:#ffffff"/><rect width="1.5" height="1.5" x="3.0" y="0.0" style="fill:#ffffff"/><rect width="1.5" height="1.5" x="4.5" y="0.0" style="fill:#ffffff"/><rect width="1.5" height="1.5" x="6.0" y="0.0" style="fill:#ffffff"/><rect width="1.5" height="1.5" x="7.5" y="0.0" style="fill:#ffffff"/><rect width="1.5" height="1.5" x="9.0" y="0.0" style="fill:#ffffff"/><rect width="1.5" height="1.5" x="13.5" y="0.0" style="fill:#ffffff"/><rect width="1.5" height="1.5" x="18.0" y="0.0" style="fill:#ffffff"/><rect width="1.5" height="1.5" x="19.5" y="0.0" style="fill:#ffffff"/><rect width="1.5" height="1.5" x="21.0" y="0.0" style="fill:#ffffff"/><rect width="1.5" height="1.5" x="24.0" y="0.0" style="fill:#ffffff"/><rect width="1.5" height="1.5" x="25.5" y="0.0" style="fill:#ffffff"/><rect width="1.5" height="1.5" x="27.0" y="0.0" style="fill:#ffffff"/><rect width="1.5" height="1.5" x="28.5" y="0.0" style="fill:#ffffff"/><rect width="1.5" height="1.5" x="33.0" y="0.0" style="fill:#ffffff"/><rect width="1.5" height="1.5" x="34.5" y="0.0" style="fill:#ffffff"/><rect width="1.5" height="1.5" x="36.0" y="0.0" style="fill:#ffffff"/><rect width="1.5" height="1.5" x="37.5" y="0.0" style="fill:#ffffff"/><rect width="1.5" height="1.5" x="39.0" y="0.0" style="fill:#ffffff"/><rect width="1.5" height="1.5" x="40.5" y="0.0" style="fill:#ffffff"/><rect width="1.5" height="1.5" x="42.0" y="0.0" style="fill:#ffffff"/>
<rect width="1.5" height="1.5" x="0.0" y="1.5" style="fill:#ffffff"/><rect width="1.5" height="1.5" x="9.0" y="1.5" style="fill:#ffffff"/><rect width="1.5" height="1.5" x="13.5" y="1.5" style="fill:#ffffff"/><rect width="1.5" height="1.5" x="18.0" y="1.5" style="fill:#ffffff"/><rect width="1.5" height="1.5" x="22.5" y="1.5" style="fill:#ffffff"/><rect width="1.5" height="1.5" x="30.0" y="1.5" style="fill:#ffffff"/><rect width="1.5" height="1.5" x="33.0" y="1.5" style="fill:#ffffff"/><rect width="1.5" height="1.5" x="42.0" y="1.5" style="fill:#ffffff"/>
<rect width="1.5" height="1.5" x="0.0" y="3.0" style="fill:#ffffff"/><rect width="1.5" height="1.5" x="3.0" y="3.0" style="fill:#ffffff"/><rect width="1.5" height="1.5" x="4.5" y="3.0" style="fill:#ffffff"/><rect width="1.5" height="1.5" x="6.0" y="3.0" style="fill:#ffffff"/><rect width="1.5" height="1.5" x="9.0" y="3.0" style="fill:#ffffff"/><rect width="1.5" height="1.5" x="12.0" y="3.0" style="fill:#ffffff"/><rect width="1.5" height="1.5" x="13.5" y="3.0" style="fill:#ffffff"/><rect width="1.5" height="1.5" x="16.5" y="3.0" style="fill:#ffffff"/><rect width="1.5" height="1.5" x="21.0" y="3.0" style="fill:#ffffff"/><rect width="1.5" height="1.5" x="24.0" y="3.0" style="fill:#ffffff"/><rect width="1.5" height="1.5" x="27.0" y="3.0" style="fill:#ffffff"/><rect width="1.5" height="1.5" x="30.0" y="3.0" style="fill:#ffffff"/><rect width="1.5" height="1.5" x="33.0" y="3.0" style="fill:#ffffff"/><rect width="1.5" height="1.5" x="36.0" y="3.0" style="fill:#ffffff"/><rect width="1.5" height="1.5" x="37.5" y="3.0" style="fill:#ffffff"/><rect width="1.5" height="1.5" x="39.0" y="3.0" style="fill:#ffffff"/><rect width="1.5" height="1.5" x="42.0" y="3.0" style="fill:#ffffff"/>
<rect width="1.5" height="1.5" x="0.0" y="4.5" style="fill:#ffffff"/><rect width="1.5" height="1.5" x="3.0" y="4.5" style="fill:#ffffff"/><rect width="1.5" height="1.5" x="4.5" y="4.5" style="fill:#ffffff"/><rect width="1.5" height="1.5" x="6.0" y="4.5" style="fill:#ffffff"/><rect width="1.5" height="1.5" x="9.0" y="4.5" style="fill:#ffffff"/><rect width="1.5" height="1.5" x="12.0" y="4.5" style="fill:#ffffff"/><rect width="1.5" height="1.5" x="13.5" y="4.5" style="fill:#ffffff"/><rect width="1.5" height="1.5" x="15.0" y="4.5" style="fill:#ffffff"/><rect width="1.5" height="1.5" x="16.5" y="4.5" style="fill:#ffffff"/><rect width="1.5" height="1.5" x="18.0" y="4.5" style="fill:#ffffff"/><rect width="1.5" height="1.5" x="19.5" y="4.5" style="fill:#ffffff"/><rect width="1.5" height="1.5" x="21.0" y="4.5" style="fill:#ffffff"/><rect width="1.5" height="1.5" x="22.5" y="4.5" style="fill:#ffffff"/><rect width="1.5" height="1.5" x="24.0" y="4.5" style="fill:#ffffff"/><rect width="1.5" height="1.5" x="25.5" y="4.5" style="fill:#ffffff"/><rect width="1.5" height="1.5" x="27.0" y="4.5" style="fill:#ffffff"/><rect width="1.5" height="1.5" x="28.5" y="4.5" style="fill:#ffffff"/><rect width="1.5" height="1.5" x="33.0" y="4.5" style="fill:#ffffff"/><rect width="1.5" height="1.5" x="36.0" y="4.5" style="fill:#ffffff"/><rect width="1.5" height="1.5" x="37.5" y="4.5" style="fill:#ffffff"/><rect width="1.5" height="1.5" x="39.0" y="4.5" style="fill:#ffffff"/><rect width="1.5" height="1.5" x="42.0" y="4.5" style="fill:#ffffff"/>
<rect width="1.5" height="1.5" x="0.0" y="6.0" style="fill:#ffffff"/><rect width="1.5" height="1.5" x="3.0" y="6.0" style="fill:#ffffff"/><rect width="1.5" height="1.5" x="4.5" y="6.0" style="fill:#ffffff"/><rect width="1.5" height="1.5" x="6.0" y="6.0" style="fill:#ffffff"/><rect width="1.5" height="1.5" x="9.0" y="6.0" style="fill:#ffffff"/><rect width="1.5" height="1.5" x="16.5" y="6.0" style="fill:#ffffff"/><rect width="1.5" height="1.5" x="18.0" y="6.0" style="fill:#ffffff"/><rect width="1.5" height="1.5" x="24.0" y="6.0" style="fill:#ffffff"/><rect width="1.5" height="1.5" x="25.5" y="6.0" style="fill:#ffffff"/><rect width="1.5" height="1.5" x="27.0" y="6.0" style="fill:#ffffff"/><rect width="1.5" height="1.5" x="28.5" y="6.0" style="fill:#ffffff"/><rect width="1.5" height="1.5" x="33.0" y="6.0" style="fill:#ffffff"/><rect width="1.5" height="1.5" x="36.0" y="6.0" style="fill:#ffffff"/><rect width="1.5" height="1.5" x="37.5" y="6.0" style="fill:#ffffff"/><rect width="1.5" height="1.5" x="39.0" y="6.0" style="fill:#ffffff"/><rect width="1.5" height="1.5" x="42.0" y="6.0" style="fill:#ffffff"/>
<rect width="1.5" height="1.5" x="0.0" y="7.5" style="fill:#ffffff"/><rect width="1.5" height="1.5" x="9.0" y="7.5" style="fill:#ffffff"/><rect width="1.5" height="1.5" x="13.5" y="7.5" style="fill:#ffffff"/><rect width="1.5" height="1.5" x="18.0" y="7.5" style="fill:#ffffff"/><rect width="1.5" height="1.5" x="21.0" y="7.5" style="fill:#ffffff"/><rect width="1.5" height="1.5" x="22.5" y="7.5" style="fill:#ffffff"/><rect width="1.5" height="1.5" x="24.0" y="7.5" style="fill:#ffffff"/><rect width="1.5" height="1.5" x="25.5" y="7.5" style="fill:#ffffff"/><rect width="1.5" height="1.5" x="27.0" y="7.5" style="fill:#ffffff"/><rect width="1.5" height="1.5" x="30.0" y="7.5" style="fill:#ffffff"/><rect width="1.5" height="1.5" x="33.0" y="7.5" style="fill:#ffffff"/><rect width="1.5" height="1.5" x="42.0" y="7.5" style="fill:#ffffff"/>
<rect width="1.5" height="1.5" x="0.0" y="9.0" style="fill:#ffffff"/><rect width="1.5" height="1.5" x="1.5" y="9.0" style="fill:#ffffff"/><rect width="1.5" height="1.5" x="3.0" y="9.0" style="fill:#ffffff"/><rect width="1.5" height="1.5" x="4.5" y="9.0" style="fill:#ffffff"/><rect width="1.5" height="1.5" x="6.0" y="9.0" style="fill:#ffffff"/><rect width="1.5" height="1.5" x="7.5" y="9.0" style="fill:#ffffff"/><rect width="1.5" height="1.5" x="9.0" y="9.0" style="fill:#ffffff"/><rect width="1.5" height="1.5" x="12.0" y="9.0" style="fill:#ffffff"/><rect width="1.5" height="1.5" x="15.0" y="9.0" style="fill:#ffffff"/><rect width="1.5" height="1.5" x="18.0" y="9.0" style="fill:#ffffff"/><rect width="1.5" height="1.5" x="21.0" y="9.0" style="fill:#ffffff"/><rect width="1.5" height="1.5" x="24.0" y="9.0" style="fill:#ffffff"/><rect width="1.5" height="1.5" x="27.0" y="9.0" style="fill:#ffffff"/><rect width="1.5" height="1.5" x="30.0" y="9.0" style="fill:#ffffff"/><rect width="1.5" height="1.5" x="33.0" y="9.0" style="fill:#ffffff"/><rect width="1.5" height="1.5" x="34.5" y="9.0" style="fill:#ffffff"/><rect width="1.5" height="1.5" x="36.0" y="9.0" style="fill:#ffffff"/><rect width="1.5" height="1.5" x="37.5" y="9.0" style="fill:#ffffff"/><rect width="1.5" height="1.5" x="39.0" y="9.0" style="fill:#ffffff"/><rect width="1.5" height="1.5" x="40.5" y="9.0" style="fill:#ffffff"/><rect width="1.5" height="1.5" x="42.0" y="9.0" style="fill:#ffffff"/>
<rect width="1.5" height="1.5" x="13.5" y="10.5" style="fill:#ffffff"/><rect width="1.5" height="1.5" x="15.0" y="10.5" style="fill:#ffffff"/><rect width="1.5" height="1.5" x="16.5" y="10.5" style="fill:#ffffff"/><rect width="1.5" height="1.5" x="21.0" y="10.5" style="fill:#ffffff"/><rect width="1.5" height="1.5" x="24.0" y="10.5" style="fill:#ffffff"/><rect width="1.5" height="1.5" x="28.5" y="10.5" style="fill:#ffffff"/><rect width="1.5" height="1.5" x="30.0" y="10.5" style="fill:#ffffff"/>
<rect width="1.5" height="1.5" x="4.5" y="12.0" style="fill:#ffffff"/><rect width="1.5" height="1.5" x="6.0" y="12.0" style="fill:#ffffff"/><rect width="1.5" height="1.5" x="9.0" y="12.0" style="fill:#ffffff"/><rect width="1.5" height="1.5" x="10.5" y="12.0" style="fill:#ffffff"/><rect width="1.5" height="1.5" x="18.0" y="12.0" style="fill:#ffffff"/><rect width="1.5" height="1.5" x="19.5" y="12.0" style="fill:#ffffff"/><rect width="1.5" height="1.5" x="24.0" y="12.0" style="fill:#ffffff"/><rect width="1.5" height="1.5" x="27.0" y="12.0" style="fill:#ffffff"/><rect width="1.5" height="1.5" x="37.5" y="12.0" style="fill:#ffffff"/><rect width="1.5" height="1.5" x="39.0" y="12.0" style="fill:#ffffff"/>
<rect width="1.5" height="1.5" x="0.0" y="13.5" style="fill:#ffffff"/><rect width="1.5" height="1.5" x="1.5" y="13.5" style="fill:#ffffff"/><rect width="1.5" height="1.5" x="6.0" y="13.5" style="fill:#ffffff"/><rect width="1.5" height="1.5" x="13.5" y="13.5" style="fill:#ffffff"/><rect width="1.5" height="1.5" x="16.5" y="13.5" style="fill:#ffffff"/><rect width="1.5" height="1.5" x="18.0" y="13.5" style="fill:#ffffff"/><rect width="1.5" height="1.5" x="22.5" y="13.5" style="fill:#ffffff"/><rect width="1.5" height="1.5" x="25.5" y="13.5" style="fill:#ffffff"/><rect width="1.5" height="1.5" x="30.0" y="13.5" style="fill:#ffffff"/><rect width="1.5" height="1.5" x="34.5" y="13.5" style="fill:#ffffff"/><rect width="1.5" height="1.5" x="36.0" y="13.5" style="fill:#ffffff"/><rect width="1.5" height="1.5" x="40.5" y="13.5" style="fill:#ffffff"/>
<rect width="1.5" height="1.5" x="6.0" y="15.0" style="fill:#ffffff"/><rect width="1.5" height="1.5" x="7.5" y="15.0" style="fill:#ffffff"/><rect width="1.5" height="1.5" x="9.0" y="15.0" style="fill:#ffffff"/><rect width="1.5" height="1.5" x="10.5" y="15.0" style="fill:#ffffff"/><rect width="1.5" height="1.5" x="12.0" y="15.0" style="fill:#ffffff"/><rect width="1.5" height="1.5" x="16.5" y="15.0" style="fill:#ffffff"/><rect width="1.5" height="1.5" x="19.5" y="15.0" style="fill:#ffffff"/><rect width="1.5" height="1.5" x="21.0" y="15.0" style="fill:#ffffff"/><rect width="1.5" height="1.5" x="24.0" y="15.0" style="fill:#ffffff"/><rect width="1.5" height="1.5" x="25.5" y="15.0" style="fill:#ffffff"/><rect width="1.5" height="1.5" x="31.5" y="15.0" style="fill:#ffffff"/><rect width="1.5" height="1.5" x="33.0" y="15.0" style="fill:#ffffff"/><rect width="1.5" height="1.5" x="34.5" y="15.0" style="fill:#ffffff"/><rect width="1.5" height="1.5" x="37.5" y="15.0" style="fill:#ffffff"/><rect width="1.5" height="1.5" x="39.0" y="15.0" style="fill:#ffffff"/>
<rect width="1.5" height="1.5" x="1.5" y="16.5" style="fill:#ffffff"/><rect width="1.5" height="1.5" x="10.5" y="16.5" style="fill:#ffffff"/><rect width="1.5" height="1.5" x="13.5" y="16.5" style="fill:#ffffff"/><rect width="1.5" height="1.5" x="15.0" y="16.5" style="fill:#ffffff"/><rect width="1.5" height="1.5" x="18.0" y="16.5" style="fill:#ffffff"/><rect width="1.5" height="1.5" x="19.5" y="16.5" style="fill:#ffffff"/><rect width="1.5" height="1.5" x="24.0" y="16.5" style="fill:#ffffff"/><rect width="1.5" height="1.5" x="27.0" y="16.5" style="fill:#ffffff"/><rect width="1.5" height="1.5" x="34.5" y="16.5" style="fill:#ffffff"/><rect width="1.5" height="1.5" x="36.0" y="16.5" style="fill:#ffffff"/><rect width="1.5" height="1.5" x="42.0" y="16.5" style="fill:#ffffff"/>
<rect width="1.5" height="1.5" x="0.0" y="18.0" style="fill:#ffffff"/><rect width="1.5" height="1.5" x="1.5" y="18.0" style="fill:#ffffff"/><rect width="1.5" height="1.5" x="3.0" y="18.0" style="fill:#ffffff"/><rect width="1.5" height="1.5" x="4.5" y="18.0" style="fill:#ffffff"/><rect width="1.5" height="1.5" x="7.5" y="18.0" style="fill:#ffffff"/><rect width="1.5" height="1.5" x="9.0" y="18.0" style="fill:#ffffff"/><rect width="1.5" height="1.5" x="10.5" y="18.0" style="fill:#ffffff"/><rect width="1.5" height="1.5" x="12.0" y="18.0" style="fill:#ffffff"/><rect width="1.5" height="1.5" x="13.5" y="18.0" style="fill:#ffffff"/><rect width="1.5" height="1.5" x="16.5" y="18.0" style="fill:#ffffff"/><rect width="1.5" height="1.5" x="19.5" y="18.0" style="fill:#ffffff"/><rect width="1.5" height="1.5" x="24.0" y="18.0" style="fill:#ffffff"/><rect width="1.5" height="1.5" x="27.0" y="18.0" style="fill:#ffffff"/><rect width="1.5" height="1.5" x="28.5" y="18.0" style="fill:#ffffff"/><rect width="1.5" height="1.5" x="30.0" y="18.0" style="fill:#ffffff"/><rect width="1.5" height="1.5" x="31.5" y="18.0" style="fill:#ffffff"/><rect width="1.5" height="1.5" x="33.0" y="18.0" style="fill:#ffffff"/><rect width="1.5" height="1.5" x="37.5" y="18.0" style="fill:#ffffff"/><rect width="1.5" height="1.5" x="40.5" y="18.0" style="fill:#ffffff"/>
<rect width="1.5" height="1.5" x="1.5" y="19.5" style="fill:#ffffff"/><rect width="1.5" height="1.5" x="3.0" y="19.5" style="fill:#ffffff"/><rect width="1.5" height="1.5" x="6.0" y="19.5" style="fill:#ffffff"/><rect width="1.5" height="1.5" x="7.5" y="19.5" style="fill:#ffffff"/><rect width="1.5" height="1.5" x="12.0" y="19.5" style="fill:#ffffff"/><rect width="1.5" height="1.5" x="13.5" y="19.5" style="fill:#ffffff"/><rect width="1.5" height="1.5" x="15.0" y="19.5" style="fill:#ffffff"/><rect width="1.5" height="1.5" x="18.0" y="19.5" style="fill:#ffffff"/><rect width="1.5" height="1.5" x="21.0" y="19.5" style="fill:#ffffff"/><rect width="1.5" height="1.5" x="22.5" y="19.5" style="fill:#ffffff"/><rect width="1.5" height="1.5" x="33.0" y="19.5" style="fill:#ffffff"/><rect width="1.5" height="1.5" x="36.0" y="19.5" style="fill:#ffffff"/><rect width="1.5" height="1.5" x="39.0" y="19.5" style="fill:#ffffff"/><rect width="1.5" height="1.5" x="40.5" y="19.5" style="fill:#ffffff"/><rect width="1.5" height="1.5" x="42.0" y="19.5" style="fill:#ffffff"/>
<rect width="1.5" height="1.5" x="1.5" y="21.0" style="fill:#ffffff"/><rect width="1.5" height="1.5" x="3.0" y="21.0" style="fill:#ffffff"/><rect width="1.5" height="1.5" x="6.0" y="21.0" style="fill:#ffffff"/><rect width="1.5" height="1.5" x="9.0" y="21.0" style="fill:#ffffff"/><rect width="1.5" height="1.5" x="10.5" y="21.0" style="fill:#ffffff"/><rect width="1.5" height="1.5" x="13.5" y="21.0" style="fill:#ffffff"/><rect width="1.5" height="1.5" x="15.0" y="21.0" style="fill:#ffffff"/><rect width="1.5" height="1.5" x="16.5" y="21.0" style="fill:#ffffff"/><rect width="1.5" height="1.5" x="21.0" y="21.0" style="fill:#ffffff"/><rect width="1.5" height="1.5" x="27.0" y="21.0" style="fill:#ffffff"/><rect width="1.5" height="1.5" x="28.5" y="21.0" style="fill:#ffffff"/><rect width="1.5" height="1.5" x="31.5" y="21.0" style="fill:#ffffff"/><rect width="1.5" height="1.5" x="33.0" y="21.0" style="fill:#ffffff"/><rect width="1.5" height="1.5" x="34.5" y="21.0" style="fill:#ffffff"/><rect width="1.5" height="1.5" x="37.5" y="21.0" style="fill:#ffffff"/><rect width="1.5" height="1.5" x="42.0" y="21.0" style="fill:#ffffff"/>
<rect width="1.5" height="1.5" x="7.5" y="22.5" style="fill:#ffffff"/><rect width="1.5" height="1.5" x="12.0" y="22.5" style="fill:#ffffff"/><rect width="1.5" height="1.5" x="15.0" y="22.5" style="fill:#ffffff"/><rect width="1.5" height="1.5" x="18.0" y="22.5" style="fill:#ffffff"/><rect width="1.5" height="1.5" x="21.0" y="22.5" style="fill:#ffffff"/><rect width="1.5" height="1.5" x="22.5" y="22.5" style="fill:#ffffff"/><rect width="1.5" height="1.5" x="27.0" y="22.5" style="fill:#ffffff"/><rect width="1.5" height="1.5" x="28.5" y="22.5" style="fill:#ffffff"/><rect width="1.5" height="1.5" x="30.0" y="22.5" style="fill:#ffffff"/><rect width="1.5" height="1.5" x="36.0" y="22.5" style="fill:#ffffff"/><rect width="1.5" height="1.5" x="37.5" y="22.5" style="fill:#ffffff"/><rect width="1.5" height="1.5" x="39.0" y="22.5" style="fill:#ffffff"/><rect width="1.5" height="1.5" x="42.0" y="22.5" style="fill:#ffffff"/>
<rect width="1.5" height="1.5" x="3.0" y="24.0" style="fill:#ffffff"/><rect width="1.5" height="1.5" x="4.5" y="24.0" style="fill:#ffffff"/><rect width="1.5" height="1.5" x="9.0" y="24.0" style="fill:#ffffff"/><rect width="1.5" height="1.5" x="10.5" y="24.0" style="fill:#ffffff"/><rect width="1.5" height="1.5" x="21.0" y="24.0" style="fill:#ffffff"/><rect width="1.5" height="1.5" x="22.5" y="24.0" style="fill:#ffffff"/><rect width="1.5" height="1.5" x="27.0" y="24.0" style="fill:#ffffff"/><rect width="1.5" height="1.5" x="37.5" y="24.0" style="fill:#ffffff"/><rect width="1.5" height="1.5" x="42.0" y="24.0" style="fill:#ffffff"/>
<rect width="1.5" height="1.5" x="0.0" y="25.5" style="fill:#ffffff"/><rect width="1.5" height="1.5" x="6.0" y="25.5" style="fill:#ffffff"/><rect width="1.5" height="1.5" x="7.5" y="25.5" style="fill:#ffffff"/><rect width="1.5" height="1.5" x="10.5" y="25.5" style="fill:#ffffff"/><rect width="1.5" height="1.5" x="13.5" y="25.5" style="fill:#ffffff"/><rect width="1.5" height="1.5" x="16.5" y="25.5" style="fill:#ffffff"/><rect width="1.5" height="1.5" x="21.0" y="25.5" style="fill:#ffffff"/><rect width="1.5" height="1.5" x="27.0" y="25.5" style="fill:#ffffff"/><rect width="1.5" height="1.5" x="28.5" y="25.5" style="fill:#ffffff"/><rect width="1.5" height="1.5" x="33.0" y="25.5" style="fill:#ffffff"/><rect width="1.5" height="1.5" x="36.0" y="25.5" style="fill:#ffffff"/><rect width="1.5" height="1.5" x="37.5" y="25.5" style="fill:#ffffff"/><rect width="1.5" height="1.5" x="39.0" y="25.5" style="fill:#ffffff"/>
<rect width="1.5" height="1.5" x="0.0" y="27.0" style="fill:#ffffff"/><rect width="1.5" height="1.5" x="1.5" y="27.0" style="fill:#ffffff"/><rect width="1.5" height="1.5" x="4.5" y="27.0" style="fill:#ffffff"/><rect width="1.5" height="1.5" x="9.0" y="27.0" style="fill:#ffffff"/><rect width="1.5" height="1.5" x="10.5" y="27.0" style="fill:#ffffff"/><rect width="1.5" height="1.5" x="12.0" y="27.0" style="fill:#ffffff"/><rect width="1.5" height="1.5" x="13.5" y="27.0" style="fill:#ffffff"/><rect width="1.5" height="1.5" x="15.0" y="27.0" style="fill:#ffffff"/><rect width="1.5" height="1.5" x="18.0" y="27.0" style="fill:#ffffff"/><rect width="1.5" height="1.5" x="21.0" y="27.0" style="fill:#ffffff"/><rect width="1.5" height="1.5" x="22.5" y="27.0" style="fill:#ffffff"/><rect width="1.5" height="1.5" x="27.0" y="27.0" style="fill:#ffffff"/><rect width="1.5" height="1.5" x="28.5" y="27.0" style="fill:#ffffff"/><rect width="1.5" height="1.5" x="30.0" y="27.0" style="fill:#ffffff"/><rect width="1.5" height="1.5" x="36.0" y="27.0" style="fill:#ffffff"/><rect width="1.5" height="1.5" x="42.0" y="27.0" style="fill:#ffffff"/>
<rect width="1.5" height="1.5" x="0.0" y="28.5" style="fill:#ffffff"/><rect width="1.5" height="1.5" x="1.5" y="28.5" style="fill:#ffffff"/><rect width="1.5" height="1.5" x="3.0" y="28.5" style="fill:#ffffff"/><rect width="1.5" height="1.5" x="6.0" y="28.5" style="fill:#ffffff"/><rect width="1.5" height="1.5" x="7.5" y="28.5" style="fill:#ffffff"/><rect width="1.5" height="1.5" x="12.0" y="28.5" style="fill:#ffffff"/><rect width="1.5" height="1.5" x="13.5" y="28.5" style="fill:#ffffff"/><rect width="1.5" height="1.5" x="15.0" y="28.5" style="fill:#ffffff"/><rect width="1.5" height="1.5" x="16.5" y="28.5" style="fill:#ffffff"/><rect width="1.5" height="1.5" x="18.0" y="28.5" style="fill:#ffffff"/><rect width="1.5" height="1.5" x="19.5" y="28.5" style="fill:#ffffff"/><rect width="1.5" height="1.5" x="21.0" y="28.5" style="fill:#ffffff"/><rect width="1.5" height="1.5" x="22.5" y="28.5" style="fill:#ffffff"/><rect width="1.5" height="1.5" x="24.0" y="28.5" style="fill:#ffffff"/><rect width="1.5" height="1.5" x="25.5" y="28.5" style="fill:#ffffff"/><rect width="1.5" height="1.5" x="27.0" y="28.5" style="fill:#ffffff"/><rect width="1.5" height="1.5" x="30.0" y="28.5" style="fill:#ffffff"/><rect width="1.5" height="1.5" x="31.5" y="28.5" style="fill:#ffffff"/><rect width="1.5" height="1.5" x="33.0" y="28.5" style="fill:#ffffff"/><rect width="1.5" height="1.5" x="36.0" y="28.5" style="fill:#ffffff"/><rect width="1.5" height="1.5" x="37.5" y="28.5" style="fill:#ffffff"/><rect width="1.5" height="1.5" x="39.0" y="28.5" style="fill:#ffffff"/><rect width="1.5" height="1.5" x="42.0" y="28.5" style="fill:#ffffff"/>
<rect width="1.5" height="1.5" x="0.0" y="30.0" style="fill:#ffffff"/><rect width="1.5" height="1.5" x="1.5" y="30.0" style="fill:#ffffff"/><rect width="1.5" height="1.5" x="7.5" y="30.0" style="fill:#ffffff"/><rect width="1.5" height="1.5" x="9.0" y="30.0" style="fill:#ffffff"/><rect width="1.5" height="1.5" x="10.5" y="30.0" style="fill:#ffffff"/><rect width="1.5" height="1.5" x="13.5" y="30.0" style="fill:#ffffff"/><rect width="1.5" height="1.5" x="16.5" y="30.0" style="fill:#ffffff"/><rect width="1.5" height="1.5" x="22.5" y="30.0" style="fill:#ffffff"/><rect width="1.5" height="1.5" x="30.0" y="30.0" style="fill:#ffffff"/><rect width="1.5" height="1.5" x="31.5" y="30.0" style="fill:#ffffff"/><rect width="1.5" height="1.5" x="33.0" y="30.0" style="fill:#ffffff"/><rect width="1.5" height="1.5" x="34.5" y="30.0" style="fill:#ffffff"/><rect width="1.5" height="1.5" x="36.0" y="30.0" style="fill:#ffffff"/><rect width="1.5" height="1.5" x="39.0" y="30.0" style="fill:#ffffff"/><rect width="1.5" height="1.5" x="42.0" y="30.0" style="fill:#ffffff"/>
<rect width="1.5" height="1.5" x="12.0" y="31.5" style="fill:#ffffff"/><rect width="1.5" height="1.5" x="16.5" y="31.5" style="fill:#ffffff"/><rect width="1.5" height="1.5" x="18.0" y="31.5" style="fill:#ffffff"/><rect width="1.5" height="1.5" x="24.0" y="31.5" style="fill:#ffffff"/><rect width="1.5" height="1.5" x="25.5" y="31.5" style="fill:#ffffff"/><rect width="1.5" height="1.5" x="30.0" y="31.5" style="fill:#ffffff"/><rect width="1.5" height="1.5" x="36.0" y="31.5" style="fill:#ffffff"/><rect width="1.5" height="1.5" x="37.5" y="31.5" style="fill:#ffffff"/><rect width="1.5" height="1.5" x="39.0" y="31.5" style="fill:#ffffff"/>
<rect width="1.5" height="1.5" x="0.0" y="33.0" style="fill:#ffffff"/><rect width="1.5" height="1.5" x="1.5" y="33.0" style="fill:#ffffff"/><rect width="1.5" height="1.5" x="3.0" y="33.0" style="fill:#ffffff"/><rect width="1.5" height="1.5" x="4.5" y="33.0" style="fill:#ffffff"/><rect width="1.5" height="1.5" x="6.0" y="33.0" style="fill:#ffffff"/><rect width="1.5" height="1.5" x="7.5" y="33.0" style="fill:#ffffff"/><rect width="1.5" height="1.5" x="9.0" y="33.0" style="fill:#ffffff"/><rect width="1.5" height="1.5" x="12.0" y="33.0" style="fill:#ffffff"/><rect width="1.5" height="1.5" x="16.5" y="33.0" style="fill:#ffffff"/><rect width="1.5" height="1.5" x="19.5" y="33.0" style="fill:#ffffff"/><rect width="1.5" height="1.5" x="24.0" y="33.0" style="fill:#ffffff"/><rect width="1.5" height="1.5" x="28.5" y="33.0" style="fill:#ffffff"/><rect width="1.5" height="1.5" x="30.0" y="33.0" style="fill:#ffffff"/><rect width="1.5" height="1.5" x="33.0" y="33.0" style="fill:#ffffff"/><rect width="1.5" height="1.5" x="36.0" y="33.0" style="fill:#ffffff"/><rect width="1.5" height="1.5" x="39.0" y="33.0" style="fill:#ffffff"/>
<rect width="1.5" height="1.5" x="0.0" y="34.5" style="fill:#ffffff"/><rect width="1.5" height="1.5" x="9.0" y="34.5" style="fill:#ffffff"/><rect width="1.5" height="1.5" x="13.5" y="34.5" style="fill:#ffffff"/><rect width="1.5" height="1.5" x="15.0" y="34.5" style="fill:#ffffff"/><rect width="1.5" height="1.5" x="16.5" y="34.5" style="fill:#ffffff"/><rect width="1.5" height="1.5" x="19.5" y="34.5" style="fill:#ffffff"/><rect width="1.5" height="1.5" x="22.5" y="34.5" style="fill:#ffffff"/><rect width="1.5" height="1.5" x="27.0" y="34.5" style="fill:#ffffff"/><rect width="1.5" height="1.5" x="28.5" y="34.5" style="fill:#ffffff"/><rect width="1.5" height="1.5" x="30.0" y="34.5" style="fill:#ffffff"/><rect width="1.5" height="1.5" x="36.0" y="34.5" style="fill:#ffffff"/><rect width="1.5" height="1.5" x="37.5" y="34.5" style="fill:#ffffff"/>
<rect width="1.5" height="1.5" x="0.0" y="36.0" style="fill:#ffffff"/><rect width="1.5" height="1.5" x="3.0" y="36.0" style="fill:#ffffff"/><rect width="1.5" height="1.5" x="4.5" y="36.0" style="fill:#ffffff"/><rect width="1.5" height="1.5" x="6.0" y="36.0" style="fill:#ffffff"/><rect width="1.5" height="1.5" x="9.0" y="36.0" style="fill:#ffffff"/><rect width="1.5" height="1.5" x="12.0" y="36.0" style="fill:#ffffff"/><rect width="1.5" height="1.5" x="13.5" y="36.0" style="fill:#ffffff"/><rect width="1.5" height="1.5" x="15.0" y="36.0" style="fill:#ffffff"/><rect width="1.5" height="1.5" x="16.5" y="36.0" style="fill:#ffffff"/><rect width="1.5" height="1.5" x="21.0" y="36.0" style="fill:#ffffff"/><rect width="1.5" height="1.5" x="24.0" y="36.0" style="fill:#ffffff"/><rect width="1.5" height="1.5" x="28.5" y="36.0" style="fill:#ffffff"/><rect width="1.5" height="1.5" x="30.0" y="36.0" style="fill:#ffffff"/><rect width="1.5" height="1.5" x="31.5" y="36.0" style="fill:#ffffff"/><rect width="1.5" height="1.5" x="33.0" y="36.0" style="fill:#ffffff"/><rect width="1.5" height="1.5" x="34.5" y="36.0" style="fill:#ffffff"/><rect width="1.5" height="1.5" x="36.0" y="36.0" style="fill:#ffffff"/>
<rect width="1.5" height="1.5" x="0.0" y="37.5" style="fill:#ffffff"/><rect width="1.5" height="1.5" x="3.0" y="37.5" style="fill:#ffffff"/><rect width="1.5" height="1.5" x="4.5" y="37.5" style="fill:#ffffff"/><rect width="1.5" height="1.5" x="6.0" y="37.5" style="fill:#ffffff"/><rect width="1.5" height="1.5" x="9.0" y="37.5" style="fill:#ffffff"/><rect width="1.5" height="1.5" x="12.0" y="37.5" style="fill:#ffffff"/><rect width="1.5" height="1.5" x="19.5" y="37.5" style="fill:#ffffff"/><rect width="1.5" height="1.5" x="21.0" y="37.5" style="fill:#ffffff"/><rect width="1.5" height="1.5" x="22.5" y="37.5" style="fill:#ffffff"/><rect width="1.5" height="1.5" x="25.5" y="37.5" style="fill:#ffffff"/><rect width="1.5" height="1.5" x="34.5" y="37.5" style="fill:#ffffff"/><rect width="1.5" height="1.5" x="37.5" y="37.5" style="fill:#ffffff"/><rect width="1.5" height="1.5" x="39.0" y="37.5" style="fill:#ffffff"/><rect width="1.5" height="1.5" x="40.5" y="37.5" style="fill:#ffffff"/>
<rect width="1.5" height="1.5" x="0.0" y="39.0" style="fill:#ffffff"/><rect width="1.5" height="1.5" x="3.0" y="39.0" style="fill:#ffffff"/><rect width="1.5" height="1.5" x="4.5" y="39.0" style="fill:#ffffff"/><rect width="1.5" height="1.5" x="6.0" y="39.0" style="fill:#ffffff"/><rect width="1.5" height="1.5" x="9.0" y="39.0" style="fill:#ffffff"/><rect width="1.5" height="1.5" x="15.0" y="39.0" style="fill:#ffffff"/><rect width="1.5" height="1.5" x="16.5" y="39.0" style="fill:#ffffff"/><rect width="1.5" height="1.5" x="18.0" y="39.0" style="fill:#ffffff"/><rect width="1.5" height="1.5" x="19.5" y="39.0" style="fill:#ffffff"/><rect width="1.5" height="1.5" x="30.0" y="39.0" style="fill:#ffffff"/><rect width="1.5" height="1.5" x="31.5" y="39.0" style="fill:#ffffff"/><rect width="1.5" height="1.5" x="34.5" y="39.0" style="fill:#ffffff"/><rect width="1.5" height="1.5" x="36.0" y="39.0" style="fill:#ffffff"/><rect width="1.5" height="1.5" x="37.5" y="39.0" style="fill:#ffffff"/><rect width="1.5" height="1.5" x="39.0" y="39.0" style="fill:#ffffff"/><rect width="1.5" height="1.5" x="40.5" y="39.0" style="fill:#ffffff"/><rect width="1.5" height="1.5" x="42.0" y="39.0" style="fill:#ffffff"/>
<rect width="1.5" height="1.5" x="0.0" y="40.5" style="fill:#ffffff"/><rect width="1.5" height="1.5" x="9.0" y="40.5" style="fill:#ffffff"/><rect width="1.5" height="1.5" x="13.5" y="40.5" style="fill:#ffffff"/><rect width="1.5" height="1.5" x="15.0" y="40.5" style="fill:#ffffff"/><rect width="1.5" height="1.5" x="18.0" y="40.5" style="fill:#ffffff"/><rect width="1.5" height="1.5" x="21.0" y="40.5" style="fill:#ffffff"/><rect width="1.5" height="1.5" x="24.0" y="40.5" style="fill:#ffffff"/><rect width="1.5" height="1.5" x="28.5" y="40.5" style="fill:#ffffff"/><rect width="1.5" height="1.5" x="30.0" y="40.5" style="fill:#ffffff"/><rect width="1.5" height="1.5" x="31.5" y="40.5" style="fill:#ffffff"/><rect width="1.5" height="1.5" x="36.0" y="40.5" style="fill:#ffffff"/><rect width="1.5" height="1.5" x="37.5" y="40.5" style="fill:#ffffff"/><rect width="1.5" height="1.5" x="39.0" y="40.5" style="fill:#ffffff"/><rect width="1.5" height="1.5" x="42.0" y="40.5" style="fill:#ffffff"/>
<rect width="1.5" height="1.5" x="0.0" y="42.0" style="fill:#ffffff"/><rect width="1.5" height="1.5" x="1.5" y="42.0" style="fill:#ffffff"/><rect width="1.5" height="1.5" x="3.0" y="42.0" style="fill:#ffffff"/><rect width="1.5" height="1.5" x="4.5" y="42.0" style="fill:#ffffff"/><rect width="1.5" height="1.5" x="6.0" y="42.0" style="fill:#ffffff"/><rect width="1.5" height="1.5" x="7.5" y="42.0" style="fill:#ffffff"/><rect width="1.5" height="1.5" x="9.0" y="42.0" style="fill:#ffffff"/><rect width="1.5" height="1.5" x="13.5" y="42.0" style="fill:#ffffff"/><rect width="1.5" height="1.5" x="15.0" y="42.0" style="fill:#ffffff"/><rect width="1.5" height="1.5" x="18.0" y="42.0" style="fill:#ffffff"/><rect width="1.5" height="1.5" x="19.5" y="42.0" style="fill:#ffffff"/><rect width="1.5" height="1.5" x="21.0" y="42.0" style="fill:#ffffff"/><rect width="1.5" height="1.5" x="22.5" y="42.0" style="fill:#ffffff"/><rect width="1.5" height="1.5" x="28.5" y="42.0" style="fill:#ffffff"/><rect width="1.5" height="1.5" x="30.0" y="42.0" style="fill:#ffffff"/><rect width="1.5" height="1.5" x="31.5" y="42.0" style="fill:#ffffff"/><rect width="1.5" height="1.5" x="34.5" y="42.0" style="fill:#ffffff"/><rect width="1.5" height="1.5" x="36.0" y="42.0" style="fill:#ffffff"/><rect width="1.5" height="1.5" x="39.0" y="42.0" style="fill:#ffffff"/>
</svg>